<?xml version="1.0" encoding="UTF-8" standalone="no"?>
<svg width="190px" height="170px" viewBox="0 0 190 170" version="1.1" xmlns="http://www.w3.org/2000/svg" xmlns:xlink="http://www.w3.org/1999/xlink" xmlns:sketch="http://www.bohemiancoding.com/sketch/ns">
    <!-- Generator: Sketch 3.2.2 (9983) - http://www.bohemiancoding.com/sketch -->
    <title>Rectangle 981 + Imported Layers</title>
    <desc>Created with Sketch.</desc>
    <defs></defs>
    <g id="Page-1" stroke="none" stroke-width="1" fill="none" fill-rule="evenodd" sketch:type="MSPage">
        <g id="people-tip" sketch:type="MSArtboardGroup" transform="translate(-224.000000, -198.000000)">
            <g id="Group" sketch:type="MSLayerGroup" transform="translate(50.000000, 50.000000)">
                <g id="Rectangle-981-+-Imported-Layers" transform="translate(170.000000, 130.000000)" sketch:type="MSShapeGroup">
                    <rect id="Rectangle-981" fill-opacity="0" fill="#D8D8D8" x="0" y="0" width="200" height="200"></rect>
                    <g id="Imported-Layers" transform="translate(5.991523, 19.945011)" stroke-width="4" stroke="#593CAF">
                        <path d="M118.299175,112.520105 C119.968943,111.964291 121.678245,111.394524 123.408477,110.81778 C125.324757,105.066617 125.620105,100.936384 125.322431,98.0852217 M157.757315,98.0852217 C157.45964,100.936384 157.754989,105.066617 159.671268,110.81778 C173.271268,115.350338 185.713129,119.513129 185.713129,119.513129 C185.713129,139.401501 170.229408,144.792198 143.33871,145.013129 M165.566617,65.4875473 C165.566617,88.150338 157.892198,106.282896 141.541036,106.282896 C125.187547,106.282896 117.515454,88.150338 117.515454,65.4875473 C117.515454,47.9619659 126.520105,38.2898728 141.541036,38.2898728 C156.561966,38.2898728 165.566617,47.9619659 165.566617,65.4875473 L165.566617,65.4875473 Z M97.1247566,87.5201054 C96.6201054,91.6759193 96.9782449,97.8061519 99.8642914,106.45964 C119.641036,113.052664 146.001501,122.943361 146.001501,122.943361 C146.001501,152.508477 139.413129,165.789873 73.4921984,165.789873 C7.57126819,165.789873 0.985221675,152.508477 0.985221675,122.943361 C0.985221675,122.943361 27.3480124,113.052664 47.1247566,106.45964 C50.0108031,97.8084775 50.3712682,91.6805705 49.8642914,87.522431 M108.434059,40.5363845 C108.434059,73.4968496 97.2735938,99.866617 73.494524,99.866617 C49.7131287,99.866617 38.5549891,73.4968496 38.5549891,40.5363845 C38.5549891,15.050338 51.650338,0.985221675 73.494524,0.985221675 C95.33871,0.985221675 108.434059,15.050338 108.434059,40.5363845 L108.434059,40.5363845 Z"></path>
                    </g>
                </g>
            </g>
        </g>
    </g>
</svg>